<?xml version="1.0" standalone="no"?>
<!DOCTYPE svg PUBLIC "-//W3C//DTD SVG 20010904//EN"
 "http://www.w3.org/TR/2001/REC-SVG-20010904/DTD/svg10.dtd">
<svg version="1.0" xmlns="http://www.w3.org/2000/svg"
 width="649.000000pt" height="649.000000pt" viewBox="0 0 649.000000 649.000000"
 preserveAspectRatio="xMidYMid meet">

<g transform="translate(0.000000,649.000000) scale(0.100000,-0.100000)"
fill="#000000" stroke="none">
<path d="M3382 5343 l-2 -213 -150 0 -150 0 0 -145 0 -145 -75 0 -75 0 0 -60
0 -60 -315 0 -315 0 0 -80 0 -80 -210 0 -209 0 -3 -86 -3 -86 -105 -2 c-58 -2
-151 -4 -206 -5 l-101 -1 -8 -160 -7 -160 -50 0 c-36 0 -47 3 -42 13 6 10 4
10 -7 0 -7 -7 -20 -13 -30 -13 -13 0 -16 12 -17 66 0 36 -3 68 -6 72 -3 3 -6
-30 -6 -72 l0 -78 -95 4 -95 3 0 -92 0 -93 -154 0 -154 0 -7 -160 -8 -160 -97
0 -98 0 0 -87 0 -88 -73 -3 -74 -3 3 -76 c2 -41 0 -79 -5 -83 -4 -5 -97 -12
-205 -16 l-198 -7 0 -28 c0 -29 0 -29 63 -29 35 0 125 -3 200 -7 l136 -6 3
-81 3 -81 88 -3 87 -3 0 -82 c0 -53 4 -77 9 -68 8 12 12 12 25 2 9 -7 13 -17
10 -22 -3 -5 0 -9 5 -9 6 0 11 8 11 18 0 13 2 14 9 3 5 -8 14 -10 21 -6 9 5
11 4 6 -3 -4 -7 -13 -12 -21 -12 -7 0 -15 -10 -17 -22 -2 -14 -10 -23 -19 -22
-10 1 -16 -5 -14 -15 1 -13 16 -16 76 -18 41 0 79 3 84 7 8 6 10 -11 7 -55
l-4 -65 76 0 76 0 0 -75 0 -75 330 0 330 0 0 75 0 75 123 0 124 0 6 173 c4 94
7 211 7 259 l0 87 133 3 c102 2 134 0 134 -9 0 -7 -4 -13 -9 -13 -4 0 -8 -25
-8 -55 l0 -55 90 0 90 0 0 55 0 55 -75 0 -75 0 0 85 0 85 80 0 80 0 0 -75 0
-75 75 0 75 0 1 38 c1 20 0 49 -1 65 l-2 27 316 0 316 0 0 -59 0 -59 145 -1
145 -1 2 62 c1 35 2 70 4 78 1 8 2 39 3 68 l1 52 71 0 71 0 -4 88 -3 87 90 0
90 0 0 -85 0 -85 -40 -6 c-22 -3 -34 -7 -27 -8 6 0 12 -5 12 -11 0 -5 -6 -8
-12 -6 -7 1 -10 1 -5 -1 12 -7 8 -24 -13 -50 -18 -23 -24 -23 -21 -1 0 4 -8 6
-19 5 -22 -1 -27 -22 -7 -31 10 -5 10 -7 0 -12 -32 -15 -6 -24 67 -24 l80 0 0
-65 0 -65 70 0 70 0 1 -52 c0 -29 0 -95 -1 -145 l-1 -93 85 0 86 0 1 -82 c1
-46 1 -98 1 -115 l1 -33 68 0 69 0 2 -42 c1 -24 3 -52 4 -63 1 -11 2 -28 3
-37 1 -16 12 -18 76 -18 l75 0 0 -95 0 -95 70 0 70 0 0 90 0 90 150 0 150 0 0
85 c0 50 4 85 10 85 6 0 10 42 10 105 l0 104 83 3 82 3 -2 71 -1 71 390 7
c214 4 391 6 393 4 2 -1 5 -33 7 -70 3 -37 7 -70 9 -73 10 -10 329 -16 472
-10 l147 7 0 69 0 69 -145 0 -145 0 0 94 0 94 -167 0 -168 1 0 115 0 116 85
-2 c75 -2 78 -2 23 -5 l-63 -4 0 -54 0 -55 124 0 c180 0 246 8 246 31 0 12 10
21 27 25 15 4 42 18 61 31 47 32 109 32 115 1 2 -13 5 20 6 72 l1 96 -227 2
c-177 3 -228 0 -234 -10 -8 -11 -14 41 -10 78 1 6 -3 31 -8 56 -4 26 -5 51 -1
57 4 7 85 11 243 11 l237 1 0 80 c0 77 -1 80 -21 74 -12 -4 -69 -4 -128 1 -58
4 -95 10 -81 12 32 5 41 19 29 49 -5 14 -9 40 -9 59 0 24 -5 34 -15 34 -8 0
-15 -4 -15 -10 0 -5 5 -10 10 -10 6 0 10 -8 9 -17 0 -11 -3 -13 -6 -5 -6 14
-43 16 -43 2 0 -5 -8 -10 -17 -10 -14 0 -13 3 5 20 27 26 28 34 2 27 -18 -5
-19 1 -22 77 l-3 81 -72 3 c-70 3 -88 11 -60 29 6 4 75 11 152 14 l140 6 -156
-1 -157 -1 -6 -44 c-3 -24 -6 -61 -6 -82 l0 -38 -82 -3 -83 -3 -3 -77 -3 -78
-74 0 -75 0 0 -74 c0 -86 1 -86 -117 -86 l-72 0 -3 -87 -3 -88 -45 -1 c-25 0
-59 -1 -77 -2 l-32 -2 -3 -82 -3 -83 -55 0 -55 0 -3 93 -3 92 -164 0 -165 0 0
85 0 85 -160 0 -160 0 0 70 0 70 -71 0 -70 0 2 88 2 87 -151 3 -151 3 -6 53
c-4 30 -4 63 0 75 6 20 3 21 -74 21 l-81 0 0 90 0 90 -75 0 c-41 0 -75 3 -75
8 0 4 -73 7 -162 7 l-163 0 0 75 0 75 162 3 162 2 3 48 3 47 67 -3 66 -4 4 29
3 28 93 3 92 3 0 84 0 85 -90 0 -90 0 0 55 0 55 86 0 87 0 -7 61 c-3 34 -6 69
-6 78 0 14 -18 16 -155 13 l-155 -4 -1 24 c-1 12 0 33 1 46 1 17 -4 22 -23 22
-28 0 -57 -28 -40 -38 5 -4 10 -14 10 -22 0 -8 3 -25 7 -37 12 -36 -23 -29
-38 8 -12 29 -14 30 -31 13 -13 -14 -16 -29 -13 -66 l5 -48 -37 0 c-29 0 -39
-5 -43 -20 -4 -17 -14 -20 -61 -20 l-56 0 0 65 0 65 64 0 63 0 13 89 14 89 38
5 c37 5 94 34 85 43 -6 6 -102 12 -199 13 l-77 1 -4 98 c-1 53 -4 1 -5 -115z
m-2 -376 c0 -23 -26 -51 -43 -44 -9 3 -18 1 -21 -6 -2 -7 -5 -1 -6 13 -1 14
-4 20 -6 13 -3 -7 -12 -9 -20 -6 -10 4 -13 0 -8 -13 5 -18 5 -18 -10 0 -9 11
-17 25 -17 30 -1 6 -5 -2 -9 -19 -8 -30 -8 -30 -9 8 l-1 37 75 0 c55 0 75 -3
75 -13z m458 -87 l-3 -100 -62 0 -63 0 0 -30 0 -30 -90 0 -90 0 0 65 0 65 90
0 90 0 0 65 0 65 66 0 66 0 -4 -100z m-1368 -415 l0 -85 55 0 55 0 0 -85 0
-85 -65 0 -64 0 -3 88 -3 87 -67 3 c-66 3 -68 4 -68 30 0 15 -3 51 -6 80 l-7
52 87 0 86 0 0 -85z m364 78 l107 -6 -3 -49 c-2 -26 -7 -46 -13 -44 -5 1 -9
10 -7 19 1 8 -8 23 -20 31 -12 9 -17 16 -10 16 6 0 12 5 12 10 0 6 -20 10 -45
10 l-45 0 0 -65 0 -65 55 0 c44 0 53 3 49 15 -4 9 0 15 10 15 9 0 16 -8 16
-20 0 -19 -6 -20 -142 -17 l-143 2 -3 64 c-5 102 -16 97 182 84z m396 -243 l0
-79 78 -3 77 -3 3 -82 3 -83 -81 0 -80 0 0 80 0 80 -75 0 -75 0 0 85 0 85 75
0 75 0 0 -80z m-300 -170 l0 -80 -75 0 -75 0 0 80 0 80 75 0 75 0 0 -80z m600
0 l0 -80 -64 0 -64 0 1 80 1 80 63 0 63 0 0 -80z m488 -172 l-3 -83 -75 0 -75
0 -3 83 -3 82 81 0 81 0 -3 -82z m-1220 -5 l-3 -78 -67 -3 -68 -3 0 81 0 80
70 0 71 0 -3 -77z m3221 27 l46 0 -33 -20 c-38 -23 -55 -27 -26 -5 17 13 14
14 -44 15 -43 0 -61 3 -56 11 4 6 19 9 36 5 17 -3 51 -6 77 -6z m81 -126 c-37
-8 -88 -9 -84 -2 3 4 26 7 52 7 26 -1 40 -3 32 -5z m-112 -11 c-10 -2 -28 -2
-40 0 -13 2 -5 4 17 4 22 1 32 -1 23 -4z m-4528 -208 l0 -75 -85 0 -85 0 0 75
0 75 85 0 85 0 0 -75z m1918 -12 l3 -83 -76 0 -75 0 0 36 c0 25 -3 33 -12 28
-9 -6 -9 -3 0 9 10 12 11 21 3 34 -9 16 -11 15 -12 -7 -1 -16 -3 -19 -6 -8 -3
11 -10 15 -21 11 -14 -5 -15 -3 -4 8 17 18 15 34 -3 19 -8 -7 -26 -10 -41 -7
-17 3 -24 1 -21 -8 3 -6 1 -18 -4 -26 -8 -12 -10 -12 -8 1 1 8 0 22 -2 30 -1
8 -5 -14 -8 -50 l-6 -65 -77 -3 -78 -3 0 79 c0 43 2 81 5 84 3 3 103 4 223 4
l217 -1 3 -82z m-568 -3 l0 -80 -80 0 -80 0 0 80 0 80 80 0 80 0 0 -80z m73
73 c-13 -2 -33 -2 -45 0 -13 2 -3 4 22 4 25 0 35 -2 23 -4z m-573 -228 l0 -96
-82 3 -83 3 -3 79 c-2 44 -1 85 2 93 4 9 28 13 86 13 l80 0 0 -95z m2350 0 l0
-95 -95 0 -95 0 0 95 0 95 95 0 95 0 0 -95z m-913 69 c-3 -3 -12 -4 -19 -1 -8
3 -5 6 6 6 11 1 17 -2 13 -5z m60 0 c-3 -3 -12 -4 -19 -1 -8 3 -5 6 6 6 11 1
17 -2 13 -5z m42 -16 c0 -16 -2 -18 -6 -8 -3 8 -11 18 -17 22 -7 5 -4 8 7 8
11 0 17 -7 16 -22z m1887 14 c6 -4 13 -24 16 -44 l4 -38 -78 0 -78 0 0 45 0
45 63 0 c34 0 67 -4 73 -8z m-1889 -94 c-3 -8 -6 -5 -6 6 -1 11 2 17 5 13 3
-3 4 -12 1 -19z m0 -50 c-3 -8 -6 -5 -6 6 -1 11 2 17 5 13 3 -3 4 -12 1 -19z
m468 -88 c4 -40 3 -76 -1 -80 -5 -5 -40 -10 -79 -12 l-70 -3 -6 70 c-3 39 -7
59 -8 45 -3 -18 -5 -20 -8 -8 -4 15 -8 16 -25 7 -18 -10 -20 -9 -15 5 6 14 -5
16 -94 15 -55 -1 -103 1 -106 5 -3 3 53 6 125 6 72 0 133 3 135 8 3 4 37 8 75
10 l70 3 7 -71z m-635 34 c0 -8 -4 -12 -10 -9 -5 3 -10 1 -10 -6 0 -7 -3 -9
-6 -6 -4 4 -1 13 6 22 16 19 20 19 20 -1z m365 -14 c3 -5 1 -10 -4 -10 -6 0
-11 5 -11 10 0 6 2 10 4 10 3 0 8 -4 11 -10z m-341 -16 c9 -24 8 -26 -14 -14
-11 6 -18 15 -15 21 9 14 22 11 29 -7z m-45 -20 c4 3 7 -6 7 -19 0 -14 -2 -22
-5 -19 -4 3 -6 11 -6 17 0 5 -6 12 -14 15 -10 3 -12 0 -8 -12 4 -10 3 -15 -3
-11 -6 3 -10 12 -10 20 0 15 23 26 28 13 2 -4 7 -6 11 -4z m-49 -34 c0 -5 -4
-10 -10 -10 -5 0 -10 5 -10 10 0 6 5 10 10 10 6 0 10 -4 10 -10z m-2325 -70
l0 -50 -57 0 -58 0 0 50 0 50 58 0 57 0 0 -50z m4111 -71 c-3 -34 -6 -84 -6
-110 l0 -49 -80 0 -80 0 0 58 c0 31 -3 81 -6 110 l-7 52 93 0 93 0 -7 -61z
m-939 -1 c-2 -13 -4 -5 -4 17 -1 22 1 32 4 23 2 -10 2 -28 0 -40z m-1277 22
c0 -5 -2 -10 -4 -10 -3 0 -8 5 -11 10 -3 6 -1 10 4 10 6 0 11 -4 11 -10z
m-1005 -62 c17 3 25 0 25 -9 0 -11 2 -11 8 -1 6 9 16 10 34 3 14 -5 28 -8 31
-5 2 3 7 -2 11 -11 3 -9 2 -13 -3 -10 -9 5 -27 -32 -23 -48 1 -4 -7 -2 -18 5
-11 7 -20 16 -20 20 0 5 -10 8 -21 8 -18 0 -19 -2 -9 -15 7 -8 16 -13 20 -10
5 3 12 0 15 -6 9 -13 -44 -9 -63 5 -9 7 -16 5 -23 -5 -5 -8 -9 -11 -9 -6 0 4
6 16 13 27 10 17 9 22 -2 29 -9 6 -11 16 -6 27 4 11 9 14 12 8 2 -6 15 -9 28
-6z m2282 -20 c-3 -7 -5 -2 -5 12 0 14 2 19 5 13 2 -7 2 -19 0 -25z m0 -55
c-3 -10 -5 -4 -5 12 0 17 2 24 5 18 2 -7 2 -21 0 -30z m-2174 2 c-3 -9 -8 -14
-10 -11 -3 3 -2 9 2 15 9 16 15 13 8 -4z m2095 -12 c-10 -2 -26 -2 -35 0 -10
3 -2 5 17 5 19 0 27 -2 18 -5z m-61 -135 c-2 -24 -4 -5 -4 42 0 47 2 66 4 43
2 -24 2 -62 0 -85z m-3624 95 c-13 -2 -33 -2 -45 0 -13 2 -3 4 22 4 25 0 35
-2 23 -4z m85 -65 l-2 -73 -3 69 c-4 66 -5 68 -28 63 -14 -2 -25 0 -25 4 0 5
14 9 30 9 l30 0 -2 -72z m1001 -83 c3 -3 -30 -3 -73 -1 l-78 6 4 -50 c1 -28 0
-50 -4 -50 -5 0 -8 25 -8 56 l0 55 77 -5 c42 -4 79 -9 82 -11z m-841 -42 l-1
-48 -4 42 -4 42 -72 4 -72 3 78 2 77 2 -2 -47z m3435 40 c-7 -2 -21 -2 -30 0
-10 3 -4 5 12 5 17 0 24 -2 18 -5z m-3593 -73 c0 -5 -4 -10 -10 -10 -5 0 -10
5 -10 10 0 6 5 10 10 10 6 0 10 -4 10 -10z m278 -17 c-21 -2 -55 -2 -75 0 -21
2 -4 4 37 4 41 0 58 -2 38 -4z m3399 -95 c-2 -18 -4 -4 -4 32 0 36 2 50 4 33
2 -18 2 -48 0 -65z m-3587 38 c0 -3 -4 -8 -10 -11 -5 -3 -10 -1 -10 4 0 6 5
11 10 11 6 0 10 -2 10 -4z m217 -38 c-3 -7 -5 -2 -5 12 0 14 2 19 5 13 2 -7 2
-19 0 -25z m3370 -150 c-2 -24 -4 -7 -4 37 0 44 2 63 4 43 2 -21 2 -57 0 -80z"/>
<path d="M3505 4100 c-3 -5 -1 -10 4 -10 6 0 11 5 11 10 0 6 -2 10 -4 10 -3 0
-8 -4 -11 -10z"/>
<path d="M2165 3050 c-3 -5 1 -10 10 -10 9 0 13 5 10 10 -3 6 -8 10 -10 10 -2
0 -7 -4 -10 -10z"/>
<path d="M1399 4203 c-10 -2 -19 -13 -22 -24 -7 -24 -2 -24 23 3 11 12 20 17
20 11 0 -7 -12 -22 -27 -34 l-28 -22 29 7 c20 5 32 3 37 -6 6 -8 9 3 9 30 0
42 -4 45 -41 35z"/>
<path d="M1335 4189 c-4 -6 -4 -13 -1 -16 3 -4 6 -1 6 5 0 6 8 13 18 15 15 4
15 5 0 6 -9 0 -20 -4 -23 -10z"/>
<path d="M1345 4159 c-4 -6 -5 -12 -2 -15 2 -3 7 2 10 11 7 17 1 20 -8 4z"/>
<path d="M1315 4130 c-3 -5 1 -10 10 -10 9 0 13 5 10 10 -3 6 -8 10 -10 10 -2
0 -7 -4 -10 -10z"/>
<path d="M1389 4113 c-13 -16 -12 -17 4 -4 9 7 17 15 17 17 0 8 -8 3 -21 -13z"/>
<path d="M1316 4095 c4 -8 11 -15 16 -15 6 0 5 6 -2 15 -7 8 -14 15 -16 15 -2
0 -1 -7 2 -15z"/>
<path d="M1418 4091 c-16 -16 -16 -17 2 -18 14 -1 20 5 20 18 0 23 0 23 -22 0z"/>
<path d="M6093 4073 c-7 -3 -13 -15 -13 -27 0 -21 6 -24 63 -30 34 -4 67 -7
72 -7 47 4 159 18 155 20 -3 0 -48 3 -102 6 -70 3 -105 10 -130 24 -18 10 -39
17 -45 14z"/>
<path d="M6362 3240 c0 -14 2 -19 5 -12 2 6 2 18 0 25 -3 6 -5 1 -5 -13z"/>
<path d="M6340 3160 c0 -36 -4 -52 -15 -56 -27 -11 -16 -25 18 -22 l32 3 0 60
c0 49 -3 60 -17 63 -15 3 -18 -4 -18 -48z"/>
<path d="M2688 3092 l-57 -3 -3 -66 -3 -66 -77 2 -78 2 0 -85 0 -86 155 0 155
0 0 80 0 80 150 0 150 0 0 -80 0 -80 75 0 75 0 0 80 0 80 -75 0 -75 0 0 70 0
70 -77 1 c-191 4 -262 4 -315 1z m56 -148 c9 -3 16 -12 16 -20 0 -10 -15 -14
-60 -14 -53 0 -60 2 -60 20 0 17 7 20 44 20 24 0 51 -3 60 -6z"/>
<path d="M2710 2930 c-13 -8 -12 -10 3 -10 9 0 17 5 17 10 0 12 -1 12 -20 0z"/>
<path d="M130 2935 c7 -8 24 -15 39 -15 45 0 54 -19 26 -52 -14 -16 -25 -38
-25 -49 0 -17 -8 -19 -70 -19 l-71 0 3 -57 3 -58 203 -3 202 -2 0 49 c0 27 -4
53 -10 56 -5 3 -10 42 -10 86 l0 79 -151 0 c-134 0 -150 -2 -139 -15z"/>
<path d="M2300 2680 l0 -110 -95 0 -95 0 2 -172 3 -173 93 -3 92 -3 0 -84 0
-85 80 0 80 0 0 -70 0 -70 90 0 90 0 0 -75 0 -75 223 2 222 3 3 78 3 78 67 -2
67 -3 3 67 3 66 77 3 77 3 3 88 3 87 69 0 70 0 0 175 0 175 -75 0 -75 0 0 100
0 101 -77 -3 -78 -3 -3 -102 -3 -103 81 0 80 0 0 -170 0 -170 -80 0 -80 0 0
-85 0 -85 -70 0 -70 0 0 -72 0 -71 -112 6 c-62 4 -132 7 -155 7 l-43 0 0 65 0
65 -60 0 -60 0 0 35 c0 34 1 35 43 36 23 1 89 4 147 8 l105 6 1 45 1 45 64 0
64 0 3 35 c2 31 -4 40 -54 83 -30 26 -60 47 -65 47 -5 0 -10 -28 -11 -62 l-1
-63 -6 48 c-7 55 -27 60 -24 5 l2 -36 -70 -4 -69 -3 0 88 0 87 75 0 75 0 0 48
c0 26 3 63 6 83 l6 36 -148 7 c-82 4 -191 7 -241 7 l-93 0 0 74 0 75 -80 0
-80 0 0 -110z"/>
<path d="M613 2735 c0 -27 2 -38 4 -22 2 15 2 37 0 50 -2 12 -4 0 -4 -28z"/>
<path d="M6090 2675 c0 -71 17 -71 22 0 2 39 -1 55 -9 55 -9 0 -13 -18 -13
-55z"/>
<path d="M5938 2583 c7 -3 16 -2 19 1 4 3 -2 6 -13 5 -11 0 -14 -3 -6 -6z"/>
<path d="M3070 2390 c0 -29 5 -42 19 -50 31 -16 61 -12 61 8 0 17 -58 82 -73
82 -4 0 -7 -18 -7 -40z"/>
<path d="M4953 2140 c0 -47 2 -66 4 -42 2 23 2 61 0 85 -2 23 -4 4 -4 -43z"/>
<path d="M4620 1911 l0 -150 -77 -3 -78 -3 -3 -72 -3 -73 -69 0 -70 0 0 -80 0
-81 185 1 c179 2 185 2 196 23 7 12 25 43 42 70 27 42 34 47 66 47 20 0 60 3
89 7 l52 6 -2 186 -3 186 -83 0 -82 0 0 33 0 32 87 0 c47 0 84 2 82 4 -2 2
-77 7 -166 11 l-163 7 0 -151z"/>
<path d="M608 1990 c-1 -33 0 -60 5 -60 4 0 7 27 7 60 0 77 -7 77 -12 0z"/>
<path d="M2780 2040 c0 -5 7 -10 15 -10 8 0 15 5 15 10 0 6 -7 10 -15 10 -8 0
-15 -4 -15 -10z"/>
<path d="M2827 2034 c4 -12 8 -13 13 -3 5 6 15 9 25 6 9 -4 14 -3 10 3 -3 6
-17 10 -30 10 -18 0 -23 -4 -18 -16z"/>
<path d="M2920 2034 c0 -8 -4 -13 -9 -10 -13 9 -32 -19 -25 -37 3 -9 12 -13
19 -11 8 4 15 -3 18 -18 2 -13 5 3 6 35 0 31 -1 57 -4 57 -3 0 -5 -7 -5 -16z
m0 -34 c0 -5 -7 -10 -16 -10 -8 0 -12 5 -9 10 3 6 10 10 16 10 5 0 9 -4 9 -10z"/>
<path d="M2800 2016 c0 -3 9 -10 19 -15 14 -8 22 -7 32 7 11 14 11 15 -1 5 -9
-8 -19 -9 -32 -2 -10 5 -18 7 -18 5z"/>
<path d="M2818 1943 c7 -3 16 -2 19 1 4 3 -2 6 -13 5 -11 0 -14 -3 -6 -6z"/>
<path d="M3437 1284 c-4 -4 -7 -18 -7 -31 0 -21 4 -23 51 -23 49 0 50 1 47 28
-3 24 -8 27 -43 30 -23 2 -44 0 -48 -4z"/>
<path d="M1138 1133 c7 -3 16 -2 19 1 4 3 -2 6 -13 5 -11 0 -14 -3 -6 -6z"/>
<path d="M1413 1133 c9 -2 23 -2 30 0 6 3 -1 5 -18 5 -16 0 -22 -2 -12 -5z"/>
</g>
</svg>
