<?xml version="1.0" standalone="no"?>
<!DOCTYPE svg PUBLIC "-//W3C//DTD SVG 20010904//EN"
 "http://www.w3.org/TR/2001/REC-SVG-20010904/DTD/svg10.dtd">
<svg version="1.0" xmlns="http://www.w3.org/2000/svg"
 width="2560.000000pt" height="480.000000pt" viewBox="0 0 2560.000000 480.000000"
 preserveAspectRatio="xMidYMid meet">

<g transform="translate(0.000000,480.000000) scale(0.100000,-0.100000)"
fill="#000000" stroke="none">
<path d="M2879 3060 c-110 -58 -166 -207 -176 -465 -9 -227 13 -378 70 -492
26 -51 68 -98 54 -59 -4 11 -15 64 -24 120 -19 123 -13 403 11 510 42 187 148
307 287 323 27 3 49 10 49 15 0 4 -21 22 -47 38 -41 26 -56 30 -117 30 -50 -1
-82 -7 -107 -20z"/>
<path d="M5049 3060 c-110 -58 -166 -207 -176 -465 -9 -227 13 -378 70 -492
26 -51 68 -98 54 -59 -4 11 -15 64 -24 120 -19 123 -13 403 11 510 42 187 148
307 287 323 27 3 49 10 49 15 0 4 -21 22 -47 38 -41 26 -56 30 -117 30 -50 -1
-82 -7 -107 -20z"/>
<path d="M11555 3064 c-106 -55 -120 -158 -33 -239 l42 -40 8 44 c10 60 52
110 121 145 68 34 152 39 284 17 74 -13 84 -13 107 3 15 10 26 26 26 39 -1 19
-2 20 -13 6 -28 -36 -47 -38 -121 -12 -157 54 -356 71 -421 37z"/>
<path d="M15889 3060 c-110 -58 -166 -207 -176 -465 -9 -227 13 -378 70 -492
26 -51 68 -98 54 -59 -4 11 -15 64 -24 120 -19 123 -13 403 11 510 42 187 148
307 287 323 27 3 49 10 49 15 0 4 -21 22 -47 38 -41 26 -56 30 -117 30 -50 -1
-82 -7 -107 -20z"/>
<path d="M22386 3038 c-45 -33 -60 -51 -76 -95 -40 -108 -19 -286 44 -359 l31
-36 0 119 c0 135 14 179 81 252 44 49 73 66 132 76 l44 7 -24 25 c-35 38 -72
53 -126 53 -42 0 -58 -6 -106 -42z"/>
<path d="M24593 3049 c-78 -55 -78 -143 -1 -222 l42 -42 7 48 c12 80 79 147
162 162 41 8 41 8 27 36 -17 32 -64 49 -132 49 -53 -1 -69 -5 -105 -31z"/>
<path d="M600 2875 l0 -195 46 0 46 0 -4 153 c-4 166 -14 203 -62 225 l-26 12
0 -195z"/>
<path d="M1327 3003 c-4 -38 -7 -330 -7 -649 0 -453 -3 -584 -12 -592 -7 -6
-26 -12 -43 -14 l-30 -3 25 -22 c28 -27 66 -29 99 -7 51 36 51 40 51 671 0
540 -1 591 -18 622 -9 19 -26 40 -38 48 -21 13 -21 12 -27 -54z"/>
<path d="M14410 3058 c-15 -6 -104 -8 -232 -4 l-208 7 0 -644 c0 -487 -3 -646
-12 -655 -7 -7 -25 -12 -40 -12 -34 0 -36 -13 -6 -34 51 -36 119 -5 138 62 6
23 10 225 10 537 0 318 4 514 11 538 14 51 63 104 107 117 20 5 69 10 107 10
86 0 141 15 155 41 16 29 1 49 -30 37z"/>
<path d="M17990 2836 l0 -226 24 0 c53 0 56 6 56 99 1 187 49 262 171 263 27
0 49 3 49 7 0 15 -48 52 -77 60 -17 5 -74 12 -127 16 l-96 7 0 -226z"/>
<path d="M10038 3040 c-9 -6 -102 -153 -207 -329 l-191 -318 0 -304 c0 -167
-4 -310 -9 -317 -5 -8 -23 -17 -41 -21 -31 -6 -32 -7 -16 -24 40 -40 100 -31
133 20 16 23 19 58 24 263 5 233 5 236 35 311 17 42 104 199 194 349 164 276
188 331 160 365 -14 17 -56 19 -82 5z"/>
<path d="M13480 3035 c0 -26 48 -48 120 -53 l70 -5 0 37 0 36 -95 0 c-77 0
-95 -3 -95 -15z"/>
<path d="M20878 3040 c-9 -6 -102 -153 -207 -329 l-191 -318 0 -304 c0 -167
-4 -310 -9 -317 -5 -8 -23 -17 -41 -21 -31 -6 -32 -7 -16 -24 40 -40 100 -31
133 20 16 23 19 58 24 263 5 233 5 236 35 311 17 42 104 199 194 349 164 276
188 331 160 365 -14 17 -56 19 -82 5z"/>
<path d="M7836 2979 c-3 -34 -6 -317 -6 -630 0 -641 5 -599 -78 -599 l-47 -1
33 -29 c64 -59 147 -32 171 56 11 38 6 1148 -5 1202 -5 23 -37 62 -53 62 -4 0
-11 -28 -15 -61z"/>
<path d="M25138 2948 c-4 -56 -13 -92 -36 -142 -29 -63 -109 -177 -141 -202
-11 -9 -4 -19 41 -53 60 -45 68 -48 68 -27 0 7 21 40 46 72 26 33 58 83 72
113 43 93 30 216 -30 295 -14 18 -16 13 -20 -56z"/>
<path d="M18628 2924 c11 -160 -82 -345 -219 -438 l-46 -31 61 -92 c33 -51 62
-87 63 -80 12 79 16 88 84 163 105 119 149 232 134 349 -6 50 -38 131 -67 169
-13 16 -14 12 -10 -40z"/>
<path d="M22990 2933 c1 -5 7 -35 15 -68 27 -113 38 -294 25 -430 -14 -162
-39 -258 -94 -370 -59 -118 -118 -190 -202 -248 -96 -65 -168 -89 -286 -95
-78 -3 -95 -7 -91 -19 11 -28 67 -46 158 -51 170 -9 284 35 401 153 141 142
204 332 204 615 0 122 -11 218 -35 315 -21 83 -97 241 -95 198z"/>
<path d="M3535 2863 c31 -124 38 -180 39 -328 1 -241 -41 -414 -138 -569 -111
-178 -257 -252 -481 -244 l-107 3 72 -34 c64 -30 85 -35 175 -39 165 -7 271
34 375 145 68 73 130 189 162 308 19 70 22 106 22 280 0 225 -13 293 -79 433
-35 74 -53 94 -40 45z"/>
<path d="M5705 2863 c31 -124 38 -180 39 -328 1 -241 -41 -414 -138 -569 -111
-178 -257 -252 -481 -244 l-107 3 72 -34 c64 -30 85 -35 175 -39 165 -7 271
34 375 145 68 73 130 189 162 308 19 70 22 106 22 280 0 225 -13 293 -79 433
-35 74 -53 94 -40 45z"/>
<path d="M16545 2863 c31 -124 38 -180 39 -328 1 -241 -41 -414 -138 -569
-111 -178 -257 -252 -481 -244 l-107 3 72 -34 c64 -30 85 -35 175 -39 165 -7
271 34 375 145 68 73 130 189 162 308 19 70 22 106 22 280 0 225 -13 293 -79
433 -35 74 -53 94 -40 45z"/>
<path d="M7078 2254 c2 -387 1 -449 -13 -477 -9 -19 -12 -34 -6 -40 17 -17 60
2 78 36 16 28 18 72 23 367 3 184 8 340 11 345 4 6 -16 56 -45 112 l-51 103 3
-446z"/>
<path d="M600 2112 c0 -360 0 -362 -57 -362 -22 0 -24 -2 -12 -16 38 -46 107
-36 137 20 13 25 17 73 22 261 3 145 10 237 17 250 19 33 66 72 102 84 19 6
74 11 122 11 l89 0 0 35 0 35 -52 0 c-29 0 -124 3 -210 7 l-158 6 0 -331z"/>
<path d="M24588 2430 c-25 -15 -88 -107 -104 -153 -31 -87 -13 -188 44 -244
l37 -37 5 81 c10 147 80 243 179 243 l46 1 -29 22 c-35 27 -147 97 -155 97 -3
0 -13 -5 -23 -10z"/>
<path d="M17990 2088 c0 -317 -3 -330 -60 -338 l-35 -5 29 -22 c34 -27 63 -29
95 -7 42 30 51 71 51 233 0 182 11 242 50 274 l28 24 -36 62 c-36 60 -37 61
-79 61 l-43 0 0 -282z"/>
<path d="M22640 2310 c-28 -19 -95 -34 -180 -40 l-85 -6 60 -29 c69 -33 149
-43 212 -26 37 10 44 16 53 49 5 20 10 43 10 50 0 14 -48 16 -70 2z"/>
<path d="M25198 2216 c8 -131 -43 -263 -138 -356 -105 -103 -226 -144 -410
-139 -128 4 -131 0 -33 -43 60 -27 224 -36 315 -18 264 51 415 306 313 527
-43 96 -51 100 -47 29z"/>
<path d="M12200 2192 c0 -231 -147 -404 -386 -458 -59 -13 -110 -15 -229 -12
-134 3 -152 2 -142 -11 7 -8 32 -23 57 -34 64 -29 342 -37 444 -13 140 33 250
118 304 234 51 109 38 268 -28 352 l-20 25 0 -83z"/>
<path d="M18765 1760 c-3 -5 -42 -10 -87 -10 -72 0 -79 -2 -67 -16 33 -40 109
-57 142 -31 9 6 19 24 23 40 6 27 1 36 -11 17z"/>
</g>
</svg>
